<svg width="100" height="28" viewBox="0 0 100 28" fill="none" xmlns="http://www.w3.org/2000/svg">
<path d="M0 13.6997V27.1143H9.43088H18.7805L18.5366 24.4313L18.2927 21.8297L12.439 21.5858L6.50406 21.3419V10.8542V0.285096H3.25203H0V13.6997Z" fill="black"/>
<path d="M26.2192 13.6997V27.1143H29.4713H32.7233V13.6997V0.285096H29.4713H26.2192V13.6997Z" fill="black"/>
<path d="M45.3656 13.2519L50.5688 26.5039H54.39H58.2111L60.081 21.6259C61.0566 18.943 63.3331 13.008 65.203 8.3739L68.455 -5.57899e-05L64.7965 0.243846L61.1379 0.487747L57.8046 8.8617C56.016 13.4958 54.39 17.073 54.1461 16.9104C53.9835 16.6665 52.3575 12.9267 50.6501 8.4552L47.5607 0.487747L43.9022 0.243846L40.2437 -5.57899e-05L45.3656 13.2519Z" fill="black"/>
<path d="M75.6099 13.6997V27.1143H78.8619H82.1139V19.3907C82.1139 15.1631 82.3578 11.6672 82.7643 11.6672C83.0895 11.6672 85.2846 15.1631 87.7237 19.3907L92.1952 27.1143H96.0976H100V13.6997V0.285096H96.7481H93.5773L93.3334 8.08994L93.0895 15.8135L88.618 8.08994L84.1464 0.285096H79.9188H75.6099V13.6997Z" fill="black"/>
</svg>
