<svg width="200" height="55" viewBox="0 0 200 55" fill="none" xmlns="http://www.w3.org/2000/svg">
<path d="M0 27.3992V54.2285H18.8618H37.561L37.0732 48.8627L36.5854 43.6594L24.8781 43.1716L13.0081 42.6838V21.7082V0.569981H6.50407H0V27.3992Z" fill="black"/>
<path d="M52.439 27.3992V54.2285H58.943H65.4471V27.3992V0.569981H58.943H52.439V27.3992Z" fill="black"/>
<path d="M90.7317 26.5047L101.138 53.0088H108.78H116.423L120.163 43.2527C122.114 37.8868 126.667 26.0169 130.406 16.7486L136.911 0.000660956L129.593 0.488466L122.276 0.976271L115.61 17.7242C112.033 26.9925 108.78 34.147 108.293 33.8218C107.967 33.334 104.715 25.8543 101.301 16.9112L95.1219 0.976271L87.8049 0.488466L80.4878 0.000660956L90.7317 26.5047Z" fill="black"/>
<path d="M151.22 27.3992V54.2285H157.724H164.228V38.7814C164.228 30.3261 164.716 23.3342 165.529 23.3342C166.179 23.3342 170.569 30.3261 175.447 38.7814L184.39 54.2285H192.195H200V27.3992V0.569981H193.496H187.155L186.667 16.1797L186.179 31.6269L177.236 16.1797L168.293 0.569981H159.838H151.22V27.3992Z" fill="black"/>
</svg>
