<svg width="200" height="48" viewBox="0 0 200 48" fill="none" xmlns="http://www.w3.org/2000/svg">
<path d="M0 24.0572V47.9702H16.8116H33.4783L33.0435 43.1876L32.6087 38.5499L22.1739 38.1151L11.5942 37.6804V18.9847V0.144125H5.7971H0V24.0572Z" fill="black"/>
<path d="M44.9272 24.0572V47.9702H50.7243H56.5214V24.0572V0.144125H50.7243H44.9272V24.0572Z" fill="black"/>
<path d="M78.9854 23.6234L88.2608 47.2466H95.0724H101.884L105.217 38.5509C106.956 33.7683 111.014 23.1886 114.348 14.9277L120.145 0.000206769L113.623 0.434989L107.101 0.869772L101.159 15.7973C97.9709 24.0582 95.0724 30.435 94.6376 30.1451C94.3477 29.7104 91.4492 23.0437 88.4057 15.0727L82.8985 0.869772L76.3767 0.434989L69.855 0.000206769L78.9854 23.6234Z" fill="black"/>
<path d="M133.333 24.0572V47.9702H139.13H144.927V24.0572V0.144125H139.13H133.333V24.0572Z" fill="black"/>
<path d="M156.522 24.0572V47.9702H162.319H168.116V34.2021C168.116 26.6659 168.551 20.434 169.276 20.434C169.855 20.434 173.768 26.6659 178.116 34.2021L186.087 47.9702H193.044H200V24.0572V0.144125H194.203H188.551L188.116 14.0572L187.681 27.8253L179.71 14.0572L171.739 0.144125H164.203H156.522V24.0572Z" fill="black"/>
</svg>
